<svg width="300" height="300" viewBox="0 0 300 300" fill="none" xmlns="http://www.w3.org/2000/svg">
<path d="M196.875 159.375C196.875 185.263 175.888 206.25 150 206.25C124.112 206.25 103.125 185.263 103.125 159.375C103.125 133.487 124.112 112.5 150 112.5C175.888 112.5 196.875 133.487 196.875 159.375Z" fill="black" fill-opacity="0.5"/>
<path d="M37.5 75C16.7893 75 0 91.7893 0 112.5V225C0 245.711 16.7893 262.5 37.5 262.5H262.5C283.211 262.5 300 245.711 300 225V112.5C300 91.7893 283.211 75 262.5 75H240.533C230.587 75 221.049 71.0491 214.017 64.0165L198.484 48.4835C191.451 41.4509 181.913 37.5 171.967 37.5H128.033C118.087 37.5 108.549 41.4509 101.517 48.4835L85.9835 64.0165C78.9509 71.0491 69.4126 75 59.467 75H37.5ZM46.875 112.5C41.6973 112.5 37.5 108.303 37.5 103.125C37.5 97.9473 41.6973 93.75 46.875 93.75C52.0527 93.75 56.25 97.9473 56.25 103.125C56.25 108.303 52.0527 112.5 46.875 112.5ZM215.625 159.375C215.625 195.619 186.244 225 150 225C113.756 225 84.375 195.619 84.375 159.375C84.375 123.131 113.756 93.75 150 93.75C186.244 93.75 215.625 123.131 215.625 159.375Z" fill="black" fill-opacity="0.5"/>
</svg>
