<svg width="89" height="89" viewBox="0 0 89 89" fill="none" xmlns="http://www.w3.org/2000/svg">
<path d="M89 44.5C89 44.5 72.3125 13.9062 44.5 13.9062C16.6875 13.9062 0 44.5 0 44.5C0 44.5 16.6875 75.0938 44.5 75.0938C72.3125 75.0938 89 44.5 89 44.5ZM6.52314 44.5C6.83979 44.0172 7.20088 43.4808 7.60546 42.9003C9.46826 40.2276 12.217 36.673 15.7536 33.1364C22.9232 25.9668 32.7109 19.4688 44.5 19.4688C56.2891 19.4688 66.0768 25.9668 73.2464 33.1364C76.783 36.673 79.5317 40.2276 81.3945 42.9003C81.7991 43.4808 82.1602 44.0172 82.4769 44.5C82.1602 44.9828 81.7991 45.5192 81.3945 46.0997C79.5317 48.7724 76.783 52.327 73.2464 55.8636C66.0768 63.0332 56.2891 69.5312 44.5 69.5312C32.7109 69.5312 22.9232 63.0332 15.7536 55.8636C12.217 52.327 9.46826 48.7724 7.60546 46.0997C7.20088 45.5192 6.83979 44.9828 6.52314 44.5Z" fill="#777777" fill-opacity="0.466667"/>
<path d="M44.5 30.5938C36.8198 30.5938 30.5938 36.8198 30.5938 44.5C30.5938 52.1802 36.8198 58.4062 44.5 58.4062C52.1802 58.4062 58.4062 52.1802 58.4062 44.5C58.4062 36.8198 52.1802 30.5938 44.5 30.5938ZM25.0312 44.5C25.0312 33.7477 33.7477 25.0312 44.5 25.0312C55.2523 25.0312 63.9688 33.7477 63.9688 44.5C63.9688 55.2523 55.2523 63.9688 44.5 63.9688C33.7477 63.9688 25.0312 55.2523 25.0312 44.5Z" fill="#777777" fill-opacity="0.466667"/>
</svg>
