<svg width="89" height="89" viewBox="0 0 89 89" fill="none" xmlns="http://www.w3.org/2000/svg">
<path d="M74.3089 62.5088C83.7784 54.0727 89 44.4998 89 44.4998C89 44.4998 72.3125 13.9061 44.5 13.9061C38.8519 13.9061 33.6627 15.1678 28.9788 17.1787L33.2668 21.4667C36.7672 20.2094 40.5195 19.4686 44.5 19.4686C56.2891 19.4686 66.0768 25.9666 73.2464 33.1363C76.783 36.6729 79.5317 40.2275 81.3945 42.9002C81.7991 43.4806 82.1602 44.0171 82.4769 44.4998C82.1602 44.9826 81.7991 45.519 81.3945 46.0995C79.5317 48.7722 76.783 52.3268 73.2464 55.8634C72.3296 56.7802 71.37 57.6861 70.3688 58.5688L74.3089 62.5088Z" fill="#777777" fill-opacity="0.466667"/>
<path d="M62.8422 51.0421C63.5716 48.9975 63.9688 46.795 63.9688 44.4998C63.9688 33.7475 55.2523 25.0311 44.5 25.0311C42.2048 25.0311 40.0024 25.4283 37.9577 26.1576L42.5319 30.7318C43.1748 30.6407 43.8319 30.5936 44.5 30.5936C52.1802 30.5936 58.4062 36.8196 58.4062 44.4998C58.4062 45.1679 58.3591 45.825 58.2681 46.468L62.8422 51.0421Z" fill="#777777" fill-opacity="0.466667"/>
<path d="M46.4683 58.2679L51.0424 62.842C48.9977 63.5714 46.7952 63.9686 44.5 63.9686C33.7477 63.9686 25.0312 55.2521 25.0312 44.4998C25.0312 42.2046 25.4284 40.0021 26.1578 37.9574L30.732 42.5316C30.6409 43.1746 30.5938 43.8317 30.5938 44.4998C30.5938 52.1801 36.8198 58.4061 44.5 58.4061C45.1681 58.4061 45.8253 58.359 46.4683 58.2679Z" fill="#777777" fill-opacity="0.466667"/>
<path d="M18.6313 30.4309C17.6301 31.3136 16.6704 32.2194 15.7536 33.1363C12.217 36.6729 9.46826 40.2275 7.60546 42.9002C7.20088 43.4806 6.83979 44.0171 6.52314 44.4998C6.83979 44.9826 7.20088 45.519 7.60546 46.0995C9.46826 48.7722 12.217 52.3268 15.7536 55.8634C22.9232 63.0331 32.7109 69.5311 44.5 69.5311C48.4805 69.5311 52.2329 68.7903 55.7334 67.533L60.0213 71.8209C55.3374 73.8319 50.1481 75.0936 44.5 75.0936C16.6875 75.0936 0 44.4998 0 44.4998C0 44.4998 5.22161 34.9269 14.6912 26.4908L18.6313 30.4309Z" fill="#777777" fill-opacity="0.466667"/>
<path d="M75.9084 79.8415L9.15836 13.0915L13.0916 9.1582L79.8416 75.9082L75.9084 79.8415Z" fill="#777777" fill-opacity="0.466667"/>
</svg>
