<svg width="75" height="49" viewBox="0 0 75 49" fill="none" xmlns="http://www.w3.org/2000/svg">
<path d="M36.411 24.3545V41.6303C35.8361 42.5048 34.9059 43.4679 33.6338 44.5416C32.3499 45.6036 30.6009 46.5338 28.3539 47.3306C26.1187 48.1165 23.2411 48.5149 19.722 48.5149C16.8444 48.5149 14.1989 48.0051 11.7865 46.998C9.38491 46.002 7.29323 44.5306 5.53322 42.5934C3.77408 40.657 2.41252 38.2993 1.44939 35.5214C0.487076 32.7434 0 29.6007 0 26.0698V22.4063C0 18.8871 0.42043 15.7436 1.2502 12.9774C2.08078 10.2104 3.30899 7.85279 4.93559 5.91637C6.55128 3.99011 8.54417 2.51879 10.9009 1.51094C13.2586 0.503897 15.9589 0.00585938 19.0028 0.00585938C22.6105 0.00585938 25.6316 0.626228 28.0669 1.86541C30.5013 3.11643 32.4049 4.8207 33.7773 7.01205C35.1498 9.19237 36.0243 11.6708 36.411 14.4597H30.1586C29.8817 12.7554 29.317 11.2065 28.4873 9.80097C27.6567 8.39555 26.4732 7.26611 24.9344 6.40339C23.4074 5.55088 21.4262 5.13051 19.0028 5.13051C16.8224 5.13051 14.9299 5.52889 13.3362 6.32578C11.7315 7.1226 10.4139 8.27315 9.37395 9.76727C8.33315 11.2504 7.57009 13.0543 7.06102 15.1797C6.55128 17.2934 6.29715 19.684 6.29715 22.3404V26.0698C6.29715 28.7921 6.61793 31.2273 7.24925 33.363C7.89086 35.5104 8.79824 37.3253 9.99356 38.8303C11.1778 40.3354 12.6053 41.4758 14.2546 42.2507C15.9032 43.0248 17.7409 43.4232 19.7549 43.4232C21.9792 43.4232 23.7838 43.2358 25.1666 42.8483C26.5501 42.4718 27.6347 42.0178 28.4096 41.4868C29.1845 40.9558 29.7821 40.4578 30.1915 39.9817L30.1884 26.429L19.8357 25.7474L19.2679 24.3545H36.411Z" fill="white"/>
<path d="M48.8018 45.8283C51.037 46.6142 51.7578 48.509 55.2769 48.509C58.1545 48.509 60.7999 47.9993 63.2124 46.9922C65.6139 45.9962 67.7057 44.5248 69.4656 42.5876C71.2248 40.6511 72.5863 38.2936 73.5494 35.5155C74.5118 32.7376 74.9988 29.5949 74.9988 26.0639V22.4005C74.9988 18.8813 74.5785 15.7378 73.7487 12.9716C72.9181 10.2046 71.6899 7.84699 70.0633 5.91052C68.4476 3.98426 66.4547 2.51294 64.0979 1.50509C61.7403 0.498044 59.04 0 55.9961 0C52.3884 0 49.3673 0.620435 46.932 1.85962C44.4976 3.11057 42.594 4.81485 41.2215 7.00619C39.849 9.18658 38.9745 11.6649 38.5879 14.4539H44.8403C45.1171 12.7497 45.6818 11.2007 46.5116 9.79518C47.3422 8.38969 48.5257 7.26032 50.0645 6.3976C51.5915 5.54503 53.5727 5.12466 55.9961 5.12466C58.1765 5.12466 60.069 5.5231 61.6626 6.31992C63.2673 7.11681 64.585 8.26736 65.625 9.76142C66.6657 11.2446 67.4288 13.0484 67.9378 15.1739C68.4476 17.2876 68.7017 19.6782 68.7017 22.3346V26.0639C68.7017 28.7863 68.381 31.2215 67.7496 33.3571C67.108 35.5046 66.2006 37.3195 65.0053 38.8245C63.821 40.3296 62.3936 41.47 60.7442 42.2449C59.0957 43.019 57.2581 43.4174 55.244 43.4174C53.0197 43.4174 51.2386 43.4926 49.8559 43.1052C38.4843 40.0112 43.245 40.0323 48.8018 45.8283Z" fill="#C5E55D"/>
<path fill-rule="evenodd" clip-rule="evenodd" d="M44.9089 32.8525H38.7012V33.0619C39.0393 35.9552 39.8941 38.552 41.2455 40.8547C42.629 43.2116 44.5763 45.0821 47.1112 46.4546C49.6343 47.8272 52.7997 48.5134 56.5738 48.5134C56.8192 48.5134 59.042 47.9197 59.2835 47.9111L58.8866 43.4037C58.6466 43.4154 56.8216 43.4217 56.5738 43.4217C53.9173 43.4217 51.8037 43.0014 50.2209 42.1496C48.6492 41.3081 47.4539 40.1018 46.6351 38.5191C45.8273 36.9473 45.2516 35.0549 44.9089 32.8525Z" fill="#C5E55D"/>
<path d="M55.9953 21.3687H18.2354V27.2509H55.9953V21.3687Z" fill="white"/>
</svg>
